<svg width="33" height="33" viewBox="0 0 33 33" fill="none" xmlns="http://www.w3.org/2000/svg">
<path d="M33 16.5C33 7.4022 25.5978 0 16.5 0C7.4022 0 0 7.4022 0 16.5C0 21.3054 2.0664 25.6368 5.3556 28.6548L5.34 28.6686L5.8752 29.1198C5.91 29.1492 5.9478 29.1732 5.9826 29.202C6.267 29.4378 6.5616 29.6616 6.8616 29.8782C6.9588 29.9484 7.056 30.0186 7.155 30.087C7.4754 30.3078 7.8042 30.5172 8.1402 30.7158C8.2134 30.759 8.2872 30.801 8.361 30.843C8.7288 31.0524 9.1044 31.2498 9.489 31.431C9.5172 31.4442 9.546 31.4562 9.5742 31.4694C10.8276 32.052 12.1656 32.4798 13.5648 32.7324C13.6014 32.739 13.638 32.7456 13.6752 32.7522C14.1096 32.8272 14.5488 32.8872 14.9934 32.9274C15.0474 32.9322 15.1014 32.9352 15.156 32.94C15.5988 32.9766 16.0464 33 16.5 33C16.9494 33 17.3928 32.9766 17.8332 32.9412C17.889 32.9364 17.9448 32.9334 18.0006 32.9286C18.4416 32.8884 18.8772 32.8302 19.3074 32.7564C19.3446 32.7498 19.3824 32.7432 19.4196 32.736C20.7978 32.4888 22.1166 32.0706 23.3538 31.503C23.3994 31.482 23.4456 31.4622 23.4912 31.4406C23.8614 31.2666 24.2232 31.0788 24.5778 30.879C24.666 30.8292 24.7536 30.7788 24.8412 30.7272C25.164 30.537 25.4814 30.3384 25.7898 30.1272C25.9008 30.0516 26.0094 29.9718 26.1192 29.8926C26.3826 29.703 26.6412 29.5074 26.8926 29.3028C26.9484 29.2578 27.0084 29.2188 27.063 29.1726L27.612 28.7142L27.5958 28.7004C30.9138 25.6812 33 21.33 33 16.5ZM1.2 16.5C1.2 8.0634 8.0634 1.2 16.5 1.2C24.9366 1.2 31.8 8.0634 31.8 16.5C31.8 21.0462 29.805 25.1334 26.6466 27.9378C26.4702 27.816 26.2926 27.7068 26.1108 27.6156L21.0306 25.0758C20.5746 24.8478 20.2914 24.3894 20.2914 23.88V22.1058C20.409 21.9606 20.5332 21.7962 20.6616 21.6156C21.3192 20.6868 21.8466 19.6536 22.2312 18.5418C22.9914 18.1806 23.4822 17.4234 23.4822 16.5684V14.4414C23.4822 13.9212 23.2914 13.4166 22.95 13.02V10.2198C22.9812 9.9084 23.0916 8.151 21.8202 6.7014C20.7144 5.439 18.9246 4.8 16.5 4.8C14.0754 4.8 12.2856 5.439 11.1798 6.7008C9.9084 8.1504 10.0188 9.9078 10.05 10.2192V13.0194C9.7092 13.416 9.5178 13.9206 9.5178 14.4408V16.5678C9.5178 17.2284 9.8142 17.8446 10.3218 18.2604C10.8078 20.1642 11.808 21.6054 12.1776 22.0938V23.8302C12.1776 24.3198 11.9106 24.7698 11.4804 25.005L6.7362 27.5928C6.585 27.675 6.435 27.771 6.285 27.8784C3.1656 25.0752 1.2 21.0132 1.2 16.5ZM25.4754 28.8792C25.2654 29.0316 25.0518 29.1792 24.8352 29.3202C24.7356 29.385 24.6366 29.4498 24.5352 29.5128C24.252 29.688 23.964 29.8548 23.67 30.0108C23.6052 30.045 23.5398 30.0774 23.4744 30.111C22.7988 30.4572 22.0998 30.7548 21.3816 30.9966C21.3564 31.005 21.3312 31.014 21.3054 31.0224C20.9292 31.1472 20.5482 31.2582 20.163 31.3536C20.1618 31.3536 20.1606 31.3542 20.1594 31.3542C19.7706 31.4502 19.377 31.53 18.981 31.5954C18.9702 31.5972 18.9594 31.5996 18.9486 31.6014C18.576 31.662 18.2004 31.7058 17.8236 31.7388C17.757 31.7448 17.6904 31.749 17.6232 31.7538C17.2506 31.782 16.8762 31.8 16.5 31.8C16.1196 31.8 15.7404 31.7814 15.363 31.7532C15.2976 31.7484 15.2322 31.7442 15.1674 31.7382C14.787 31.7046 14.4084 31.6596 14.0334 31.5984C14.0166 31.5954 13.9998 31.5924 13.983 31.5894C13.1898 31.4568 12.4092 31.2618 11.649 31.0068C11.6256 30.999 11.6016 30.9906 11.5782 30.9828C11.2008 30.8544 10.8276 30.7122 10.461 30.555C10.4586 30.5538 10.4556 30.5526 10.4532 30.5514C10.1064 30.402 9.7662 30.2364 9.4302 30.0618C9.3864 30.039 9.342 30.0174 9.2988 29.994C8.9922 29.8302 8.6922 29.6532 8.3964 29.4684C8.3088 29.4132 8.2218 29.3574 8.1354 29.301C7.863 29.1228 7.5942 28.9374 7.3326 28.7412C7.3056 28.7208 7.2798 28.6992 7.2528 28.6788C7.272 28.668 7.2912 28.6572 7.3104 28.6464L12.0546 26.0586C12.8706 25.6134 13.3776 24.7596 13.3776 23.8302L13.377 21.669L13.239 21.5022C13.2258 21.4872 11.9286 19.9092 11.4384 17.7726L11.3838 17.535L11.1792 17.4024C10.8906 17.2158 10.7178 16.9038 10.7178 16.5672V14.4402C10.7178 14.1612 10.836 13.9014 11.052 13.7064L11.25 13.5276V10.1856L11.2446 10.107C11.2428 10.0926 11.0658 8.6496 12.0822 7.491C12.9498 6.5022 14.4366 6 16.5 6C18.5556 6 20.0376 6.498 20.9076 7.4796C21.9228 8.6262 21.7566 10.0962 21.7554 10.1082L21.75 13.5288L21.948 13.7076C22.1634 13.902 22.2822 14.1624 22.2822 14.4414V16.5684C22.2822 16.9962 21.9912 17.3844 21.5736 17.5134L21.2754 17.6052L21.1794 17.9022C20.8254 19.002 20.3214 20.0178 19.6818 20.9214C19.5246 21.1434 19.3716 21.3402 19.2402 21.4908L19.0914 21.6606V23.88C19.0914 24.8472 19.629 25.7172 20.4942 26.1492L25.5744 28.689C25.6068 28.7052 25.6386 28.722 25.6704 28.7388C25.6062 28.7874 25.5402 28.8324 25.4754 28.8792Z" fill="white"/>
</svg>
