<svg width="25" height="33" viewBox="0 0 25 33" fill="none" xmlns="http://www.w3.org/2000/svg">
<path d="M16.0549 33H6.8429C4.4459 33 2.4939 31.049 2.4939 28.651V11.265C2.4939 10.989 2.7179 10.765 2.9939 10.765H19.8219C20.0979 10.765 20.4029 10.989 20.4029 11.265V28.652C20.4029 31.049 18.4519 33 16.0549 33ZM3.4939 11.765V28.652C3.4939 30.499 4.9959 32.001 6.8429 32.001H16.0549C17.9019 32.001 19.4039 30.499 19.4039 28.652V11.765H3.4939Z" fill="white"/>
<path d="M22.0148 25.574H19.9038C19.6278 25.574 19.4038 25.35 19.4038 25.074C19.4038 24.798 19.6278 24.574 19.9038 24.574H22.0148C23.0198 24.574 23.8378 23.756 23.8378 22.751V18.058C23.8378 17.052 23.0198 16.234 22.0148 16.234H19.9038C19.6278 16.234 19.4038 16.01 19.4038 15.734C19.4038 15.458 19.6278 15.234 19.9038 15.234H22.0148C23.5718 15.234 24.8378 16.501 24.8378 18.058V22.751C24.8378 24.308 23.5708 25.574 22.0148 25.574Z" fill="white"/>
<path d="M7.29492 28.365C7.01892 28.365 6.79492 28.141 6.79492 27.865V15.691C6.79492 15.415 7.01892 15.191 7.29492 15.191C7.57092 15.191 7.79492 15.415 7.79492 15.691V27.865C7.79492 28.142 7.57092 28.365 7.29492 28.365Z" fill="white"/>
<path d="M15.6018 28.365C15.3258 28.365 15.1018 28.141 15.1018 27.865V15.691C15.1018 15.415 15.3258 15.191 15.6018 15.191C15.8778 15.191 16.1018 15.415 16.1018 15.691V27.865C16.1018 28.142 15.8778 28.365 15.6018 28.365Z" fill="white"/>
<path d="M11.448 28.365C11.172 28.365 10.948 28.141 10.948 27.865V15.691C10.948 15.415 11.172 15.191 11.448 15.191C11.724 15.191 11.948 15.415 11.948 15.691V27.865C11.948 28.142 11.725 28.365 11.448 28.365Z" fill="white"/>
<path d="M19.617 11.765H3.28C1.471 11.765 0 10.293 0 8.485C0 6.677 1.472 5.205 3.28 5.205H3.519C3.855 2.249 6.332 0 9.357 0C11.152 0 12.839 0.819 13.953 2.213C14.44 2.006 14.946 1.901 15.461 1.901C17.413 1.901 19.047 3.318 19.37 5.204H19.617C21.426 5.204 22.897 6.676 22.897 8.484C22.897 10.292 21.426 11.765 19.617 11.765ZM3.28 6.204C2.022 6.204 1 7.226 1 8.484C1 9.742 2.022 10.764 3.28 10.764H19.617C20.875 10.764 21.897 9.742 21.897 8.484C21.897 7.226 20.875 6.204 19.617 6.204H18.924C18.657 6.204 18.439 5.996 18.425 5.729C18.343 4.143 17.041 2.901 15.461 2.901C14.976 2.901 14.497 3.029 14.038 3.281C13.815 3.405 13.53 3.337 13.386 3.126C12.473 1.795 10.967 1 9.357 1C6.711 1 4.571 3.073 4.484 5.721C4.475 5.991 4.254 6.204 3.984 6.204H3.28Z" fill="white"/>
</svg>
