<svg width="33" height="30" viewBox="0 0 33 30" fill="none" xmlns="http://www.w3.org/2000/svg">
<path fill-rule="evenodd" clip-rule="evenodd" d="M16.0297 3.86165C15.7781 4.11342 15.7781 4.52154 16.0297 4.77331C16.1555 4.89894 16.3207 4.96188 16.4856 4.96188C16.6505 4.96188 16.8154 4.89894 16.9413 4.77331C17.9063 3.80835 17.3843 2.76938 17.0723 2.1485L17.0722 2.14835C16.7145 1.43584 16.7278 1.31374 16.9413 1.10023C17.1931 0.848465 17.1931 0.440346 16.9413 0.188828C16.6896 -0.0629425 16.2814 -0.0629425 16.0297 0.188828C15.1083 1.11017 15.6166 2.12213 15.9203 2.72666L15.9204 2.72692C16.2782 3.43893 16.2935 3.59805 16.0297 3.86165ZM28.0268 21.6057V19.6726H29.869C31.5954 19.6726 33 18.268 33 16.5416V12.5644C33 10.838 31.5954 9.43335 29.869 9.43335H28.0268V9.33088C28.0268 8.25003 27.1476 7.37085 26.0668 7.37085H13.3786C13.0226 7.37085 12.734 7.65963 12.734 8.01538C12.734 8.37138 13.0226 8.65991 13.3786 8.65991H15.8555V10.803C15.7117 10.8611 15.5737 10.9387 15.4458 11.0374L13.6842 12.3964C13.2079 12.7189 12.9246 13.2517 12.9246 13.8277V17.9439C12.9246 18.8971 13.6998 19.6726 14.653 19.6726H18.347C19.3002 19.6726 20.0756 18.8971 20.0756 17.9439V13.8277C20.0756 13.7998 20.0736 13.7724 20.0701 13.7452C20.0464 13.2383 19.8055 12.7743 19.4011 12.4621L17.5735 11.0522C17.4406 10.9465 17.2956 10.8644 17.1445 10.8032V8.66016H26.0668C26.4369 8.66016 26.7377 8.96103 26.7377 9.33088V21.6057C26.7377 23.9081 24.8646 25.7813 22.5621 25.7813H10.4379C8.13519 25.7813 6.26228 23.9079 6.26228 21.6057V9.33088C6.26228 8.96103 6.56314 8.65991 6.93324 8.65991H8.93356C9.28956 8.65991 9.57809 8.37138 9.57809 8.01538C9.57809 7.65963 9.28956 7.37085 8.93356 7.37085H6.93324C5.85239 7.37085 4.97321 8.25028 4.97321 9.33088V21.6057C4.97321 23.2787 5.72978 24.778 6.91788 25.781H0.644531C0.288528 25.781 0 26.0698 0 26.4256C0 26.7816 0.288528 27.0701 0.644531 27.0701H1.67578V27.7146C1.67578 28.7809 2.54313 29.6482 3.60938 29.6482H29.3906C30.4569 29.6482 31.3242 28.7809 31.3242 27.7146V27.0701H32.3555C32.7115 27.0701 33 26.7816 33 26.4256C33 26.0698 32.7115 25.781 32.3555 25.781H26.0821C27.2702 24.778 28.0268 23.2789 28.0268 21.6057ZM18.6136 13.4826C18.7211 13.5656 18.7831 13.6918 18.7831 13.8282C18.7831 13.8501 18.7843 13.8721 18.7863 13.8935V17.9439C18.7863 18.1864 18.5892 18.3835 18.347 18.3835H14.653C14.4106 18.3835 14.2134 18.1861 14.2134 17.9439V13.8277C14.2134 13.6789 14.2882 13.5412 14.4131 13.4594C14.4272 13.4503 14.4408 13.4408 14.4539 13.4304L16.2334 12.0578C16.3087 11.9996 16.3978 11.9702 16.4874 11.9674L16.4937 11.9677L16.5 11.9679L16.5064 11.9677L16.5128 11.9674C16.605 11.9702 16.6961 12.0012 16.7722 12.0621L16.7817 12.0696L18.6136 13.4826ZM28.0268 12.7849H29.6484V16.321H28.0268V12.7849ZM29.869 10.7224C30.8846 10.7224 31.7109 11.5487 31.7109 12.5644V16.5413C31.7109 17.5572 30.8846 18.3835 29.869 18.3835H28.0268V17.6101H29.869C30.4581 17.6101 30.9375 17.1305 30.9375 16.5413V12.5644C30.9375 11.9752 30.4581 11.4958 29.869 11.4958H28.0268V10.7224H29.869ZM30.0352 27.0703V27.7149C30.0352 28.0701 29.7459 28.3594 29.3906 28.3594H3.60938C3.25413 28.3594 2.96484 28.0701 2.96484 27.7149V27.0703H30.0352ZM10.13 6.06212C9.87823 5.81035 9.87823 5.40248 10.13 5.15071C10.3936 4.88711 10.3782 4.72799 10.0205 4.01624L10.0202 4.0157C9.71655 3.41088 9.20855 2.3991 10.13 1.47789C10.3815 1.22612 10.7896 1.22612 11.0414 1.47789C11.2932 1.72966 11.2932 2.13778 11.0414 2.3893C10.8279 2.6028 10.8146 2.72491 11.1723 3.43742L11.1724 3.43756C11.4844 4.05845 12.0064 5.09741 11.0414 6.06212C10.9155 6.188 10.7506 6.25095 10.5857 6.25095C10.4208 6.25095 10.2559 6.188 10.13 6.06212ZM21.9297 5.15071C21.6781 5.40248 21.6779 5.81035 21.9297 6.06212C22.0556 6.188 22.2205 6.25095 22.3856 6.25095C22.5505 6.25095 22.7154 6.188 22.8413 6.06212C23.8063 5.09741 23.2843 4.05844 22.9723 3.43756L22.9722 3.43742C22.6142 2.72491 22.6278 2.6028 22.8413 2.3893C23.0928 2.13778 23.0928 1.72966 22.8413 1.47789C22.5896 1.22612 22.1814 1.22612 21.9297 1.47789C21.0085 2.39909 21.5165 3.41088 21.8201 4.01569L21.8204 4.01624C22.1782 4.72799 22.1933 4.88711 21.9297 5.15071ZM10.1407 8.01538C10.1407 7.65963 10.4293 7.37085 10.7853 7.37085H10.8024C11.1584 7.37085 11.4469 7.65963 11.4469 8.01538C11.4469 8.37138 11.1584 8.65991 10.8024 8.65991H10.7853C10.4293 8.65991 10.1407 8.37138 10.1407 8.01538ZM18.7103 25.1365C19.0663 25.1365 19.3548 24.8479 19.3548 24.4919C19.3548 24.1362 19.0663 23.8474 18.7103 23.8474H18.6929C18.3369 23.8474 18.0484 24.1362 18.0484 24.4919C18.0484 24.8479 18.3369 25.1365 18.6929 25.1365H18.7103ZM23.2066 24.4919C23.2066 24.8479 22.9181 25.1365 22.5621 25.1365H20.562C20.206 25.1365 19.9175 24.8479 19.9175 24.4919C19.9175 24.1362 20.206 23.8474 20.562 23.8474H22.5621C22.9181 23.8474 23.2066 24.1362 23.2066 24.4919Z" fill="white"/>
</svg>
