<svg width="33" height="33" viewBox="0 0 33 33" fill="none" xmlns="http://www.w3.org/2000/svg">
<g clip-path="url(#clip0)">
<path d="M20.3669 9.66797C22.2327 9.66797 23.7507 8.14997 23.7507 6.28418C23.7507 6.28179 23.7505 6.27947 23.7505 6.27709C23.7505 6.27587 23.7507 6.27471 23.7507 6.27348V2.90039C23.7507 1.30112 22.4496 0 20.8503 0C19.9381 0 19.0798 0.434607 18.5356 1.15384C18.5016 1.15146 18.4675 1.15017 18.4333 1.15017C17.6337 1.15017 16.9832 1.80076 16.9832 2.60036V6.27342C16.9832 6.27464 16.9833 6.2758 16.9833 6.27703C16.9833 6.27941 16.9832 6.28173 16.9832 6.28412C16.9832 8.14997 18.5012 9.66797 20.3669 9.66797ZM20.3669 8.70117C19.0342 8.70117 17.95 7.61694 17.95 6.28418C17.95 4.95142 19.0342 3.86719 20.3669 3.86719C21.6997 3.86719 22.7839 4.95142 22.7839 6.28418C22.7839 7.61694 21.6997 8.70117 20.3669 8.70117ZM17.95 2.60043C17.95 2.33385 18.1668 2.11703 18.4333 2.11703C18.4872 2.11703 18.5418 2.12676 18.5956 2.14597C18.8152 2.22466 19.0596 2.13488 19.1765 1.93308C19.5218 1.33708 20.1632 0.966797 20.8503 0.966797C21.9165 0.966797 22.7839 1.83421 22.7839 2.90039V3.91927C22.1692 3.29117 21.3131 2.90039 20.3669 2.90039C19.4208 2.90039 18.5646 3.29117 17.95 3.91927V2.60043Z" fill="white"/>
<path d="M23.026 20.9444C23.3818 21.1507 23.7943 21.2695 24.2343 21.2695C24.5013 21.2695 24.7177 21.0531 24.7177 20.7861V12.8722C27.9578 12.6245 30.5185 9.90888 30.5185 6.60644C30.5185 6.33942 30.3021 6.12305 30.0351 6.12305C29.7681 6.12305 29.5517 6.33942 29.5517 6.60644C29.5517 9.40002 27.3857 11.6957 24.6452 11.9063C24.4285 11.1722 23.7487 10.6347 22.9453 10.6347H17.789C16.9741 10.6347 16.2862 11.1878 16.0801 11.9382C12.81 12.155 10.2158 14.884 10.2158 18.208C10.2158 18.475 10.4323 18.6914 10.6992 18.6914C10.9662 18.6914 11.1826 18.475 11.1826 18.208C11.1826 15.439 13.3104 13.1587 16.0166 12.9135V20.7861C16.0166 21.0531 16.233 21.2695 16.5 21.2695C16.94 21.2695 17.3525 21.1507 17.7083 20.9444C17.7843 21.0409 17.8649 21.133 17.9502 21.22V25.6068C16.1106 27.1681 15.0577 29.4275 15.0502 31.8457L14.4136 32.0579C14.1603 32.1423 14.0234 32.4161 14.1078 32.6693C14.1754 32.8719 14.3639 33 14.5663 33C14.617 33 14.6685 32.9919 14.7193 32.975L16.5785 32.3554H18.4336C18.7006 32.3554 18.917 32.139 18.917 31.872V21.9088C19.3629 22.1207 19.8567 22.2363 20.3671 22.2363C20.8775 22.2363 21.3714 22.1207 21.8173 21.9088V31.872C21.8173 32.139 22.0337 32.3554 22.3007 32.3554H24.1558L26.015 32.9751C26.0657 32.992 26.1173 33 26.168 33C26.3704 33 26.5589 32.872 26.6265 32.6694C26.7109 32.4161 26.5741 32.1423 26.3208 32.0579L25.6841 31.8457C25.6765 29.4275 24.6237 27.1681 22.7841 25.6069V21.22C22.8694 21.133 22.95 21.0409 23.026 20.9444ZM17.9502 31.3886H16.4924C16.4895 31.3886 16.0324 31.3886 16.0324 31.3886C16.1423 29.7186 16.8193 28.1577 17.9502 26.9416V31.3886ZM24.7019 31.3886H24.2441C24.2435 31.3886 22.7841 31.3886 22.7841 31.3886V26.9416C23.915 28.1577 24.592 29.7186 24.7019 31.3886ZM18.917 18.3691V14.2252C19.2419 14.6846 19.6402 15.0808 20.0986 15.3872C20.1798 15.4416 20.2735 15.4688 20.3671 15.4688C20.4608 15.4688 20.5544 15.4416 20.6357 15.3872C21.0941 15.0809 21.4924 14.6846 21.8173 14.2252V18.3691H18.917ZM18.9422 11.6015H21.7921C21.6749 12.7191 21.1563 13.7345 20.3671 14.3838C19.578 13.7345 19.0593 12.7191 18.9422 11.6015ZM23.7509 12.4072V20.2199C23.1882 20.0203 22.7841 19.4827 22.7841 18.8525V11.6015H22.9453C23.3895 11.6015 23.7509 11.9629 23.7509 12.4072ZM16.9834 12.4072C16.9834 11.9629 17.3448 11.6015 17.789 11.6015H17.9502V18.8525C17.9502 19.4827 17.546 20.0203 16.9834 20.2199V12.4072ZM18.4332 20.3015C18.6443 20.0205 18.7957 19.6924 18.8683 19.3359H21.8659C21.9386 19.6924 22.09 20.0206 22.3011 20.3015C21.848 20.9054 21.1334 21.2695 20.3671 21.2695C19.6008 21.2695 18.8863 20.9054 18.4332 20.3015Z" fill="white"/>
<path d="M8.28223 12.085C8.54921 12.085 8.76563 11.8685 8.76563 11.6016C8.76563 11.3346 8.54921 11.1182 8.28223 11.1182C8.01526 11.1182 7.79883 11.3346 7.79883 11.6016C7.79883 11.8685 8.01526 12.085 8.28223 12.085Z" fill="white"/>
<path d="M12.0422 10.5276C12.3092 10.5276 12.5256 10.3112 12.5256 10.0442C12.5256 9.77722 12.3092 9.56079 12.0422 9.56079C11.7753 9.56079 11.5588 9.77722 11.5588 10.0442C11.5588 10.3112 11.7753 10.5276 12.0422 10.5276Z" fill="white"/>
<path d="M13.5996 6.76758C13.8666 6.76758 14.083 6.55115 14.083 6.28418C14.083 6.01721 13.8666 5.80078 13.5996 5.80078C13.3326 5.80078 13.1162 6.01721 13.1162 6.28418C13.1162 6.55115 13.3326 6.76758 13.5996 6.76758Z" fill="white"/>
<path d="M12.0422 3.00769C12.3092 3.00769 12.5256 2.79127 12.5256 2.52429C12.5256 2.25732 12.3092 2.04089 12.0422 2.04089C11.7753 2.04089 11.5588 2.25732 11.5588 2.52429C11.5588 2.79127 11.7753 3.00769 12.0422 3.00769Z" fill="white"/>
<path d="M4.52222 3.00769C4.78919 3.00769 5.00562 2.79127 5.00562 2.52429C5.00562 2.25732 4.78919 2.04089 4.52222 2.04089C4.25524 2.04089 4.03882 2.25732 4.03882 2.52429C4.03882 2.79127 4.25524 3.00769 4.52222 3.00769Z" fill="white"/>
<path d="M2.96484 6.76758C3.23182 6.76758 3.44824 6.55115 3.44824 6.28418C3.44824 6.01721 3.23182 5.80078 2.96484 5.80078C2.69787 5.80078 2.48145 6.01721 2.48145 6.28418C2.48145 6.55115 2.69787 6.76758 2.96484 6.76758Z" fill="white"/>
<path d="M4.52222 10.5276C4.78919 10.5276 5.00562 10.3112 5.00562 10.0442C5.00562 9.77722 4.78919 9.56079 4.52222 9.56079C4.25524 9.56079 4.03882 9.77722 4.03882 10.0442C4.03882 10.3112 4.25524 10.5276 4.52222 10.5276Z" fill="white"/>
<path d="M12.1494 6.28418C12.1494 4.31565 10.6705 2.68705 8.76563 2.44825V0.966797H9.24903C9.51599 0.966797 9.73243 0.750428 9.73243 0.483398C9.73243 0.216369 9.51599 0 9.24903 0H7.31543C7.04847 0 6.83203 0.216369 6.83203 0.483398C6.83203 0.750428 7.04847 0.966797 7.31543 0.966797H7.79883V2.44825C5.89392 2.68705 4.41504 4.31559 4.41504 6.28418C4.41504 8.41655 6.14986 10.1514 8.28223 10.1514C10.4146 10.1514 12.1494 8.41655 12.1494 6.28418ZM8.28223 3.3979C8.46966 3.5486 8.84407 4.36586 8.91497 5.80078H7.64956C7.72039 4.3658 8.0948 3.5486 8.28223 3.3979ZM8.91497 6.76758C8.84407 8.20256 8.46966 9.01976 8.28223 9.17046C8.0948 9.01976 7.72039 8.2025 7.64949 6.76758H8.91497ZM9.51606 8.90832C9.72862 8.30865 9.84812 7.55062 9.8826 6.76758H11.1415C10.9817 7.71626 10.36 8.50988 9.51606 8.90832ZM11.1416 5.80078H9.88267C9.84812 5.01774 9.72862 4.25971 9.51612 3.66004C10.36 4.05848 10.9817 4.8521 11.1416 5.80078ZM7.04834 3.66004C6.83584 4.25971 6.71634 5.01774 6.68179 5.80078H5.42289C5.5828 4.8521 6.20445 4.05848 7.04834 3.66004ZM5.42289 6.76758H6.68179C6.71634 7.55062 6.83584 8.30865 7.04834 8.90832C6.20445 8.50988 5.5828 7.71626 5.42289 6.76758Z" fill="white"/>
</g>
<defs>
<clipPath id="clip0">
<rect width="33" height="33" fill="white"/>
</clipPath>
</defs>
</svg>
