<svg width="33" height="33" viewBox="0 0 33 33" fill="none" xmlns="http://www.w3.org/2000/svg">
<path d="M23.3684 11.122L23.0153 9.95987C22.5668 8.63973 21.133 7.93319 19.8129 8.38171C19.0702 8.63403 18.487 9.21723 18.2347 9.95987L17.8816 11.122C17.5845 12.1021 17.5221 13.1384 17.6996 14.147C17.8614 14.9962 18.4005 15.7258 19.1648 16.1298L18.7693 24.9699C18.7164 25.4633 18.8764 25.9559 19.2093 26.324C19.9252 27.1071 21.1404 27.1615 21.9235 26.4456C21.9659 26.4069 22.0064 26.3664 22.0451 26.324C22.3706 25.9664 22.5304 25.4882 22.4851 25.0068L22.0875 16.1287C22.8507 15.7245 23.3889 14.9954 23.5505 14.147C23.7279 13.1384 23.6656 12.1021 23.3684 11.122ZM22.467 13.9556C22.3479 14.5657 21.9131 15.0663 21.3257 15.2696C21.1028 15.3534 20.9591 15.5712 20.9699 15.8091L21.3879 25.0937C21.4071 25.2758 21.347 25.4574 21.2229 25.592C20.8917 25.9198 20.3583 25.9198 20.0272 25.592C19.8968 25.4465 19.8376 25.2507 19.8655 25.0574L20.2802 15.8091C20.2909 15.5712 20.1473 15.3534 19.9243 15.2696C19.3369 15.0663 18.9021 14.5657 18.7831 13.9556C18.6359 13.1182 18.6878 12.258 18.9343 11.4443L19.2874 10.2816C19.5606 9.5429 20.381 9.16553 21.1197 9.43874C21.5103 9.58319 21.8182 9.89112 21.9626 10.2816L22.3157 11.4443C22.562 12.258 22.6138 13.1182 22.467 13.9556Z" fill="white"/>
<path d="M14.8501 8.25C14.5464 8.25 14.3001 8.49626 14.3001 8.8V13.5223L12.8112 15.0111C12.7011 15.1209 12.6425 15.2722 12.6501 15.4275L13.1313 25.0525C13.1428 25.2601 13.0675 25.4631 12.9234 25.613C12.6224 25.9167 12.1321 25.9189 11.8283 25.6178C11.8266 25.6162 11.825 25.6145 11.8234 25.613C11.6793 25.4631 11.6041 25.2601 11.6155 25.0525L12.1001 15.4275C12.1078 15.2723 12.0494 15.121 11.9395 15.0111L10.4501 13.5223V8.8C10.4501 8.49626 10.2038 8.25 9.9001 8.25C9.59636 8.25 9.3501 8.49626 9.3501 8.8V13.75C9.3501 13.8959 9.40812 14.0357 9.51125 14.1389L10.9885 15.6167L10.5194 24.9991C10.4695 26.024 11.2598 26.8953 12.2847 26.9453C13.3095 26.9952 14.1809 26.2048 14.2308 25.18C14.2338 25.1197 14.2338 25.0594 14.2308 24.9992L13.7616 15.6168L15.2389 14.1389C15.3421 14.0358 15.4001 13.896 15.4001 13.7501V8.80007C15.4001 8.49626 15.1538 8.25 14.8501 8.25Z" fill="white"/>
<path d="M11.55 8.25C11.2463 8.25 11 8.49626 11 8.8V13.2C11 13.5037 11.2463 13.75 11.55 13.75C11.8537 13.75 12.1 13.5037 12.1 13.2V8.8C12.1 8.49626 11.8537 8.25 11.55 8.25Z" fill="white"/>
<path d="M13.1999 8.25C12.8962 8.25 12.6499 8.49626 12.6499 8.8V13.2C12.6499 13.5037 12.8962 13.75 13.1999 13.75C13.5036 13.75 13.7499 13.5037 13.7499 13.2V8.8C13.7499 8.49626 13.5036 8.25 13.1999 8.25Z" fill="white"/>
<path d="M16.5 0C7.38732 0 0 7.38732 0 16.5C0 25.6127 7.38732 33 16.5 33C25.6127 33 33 25.6127 33 16.5C32.9897 7.39159 25.6084 0.0103125 16.5 0ZM16.5 31.9C7.9948 31.9 1.1 25.0052 1.1 16.5C1.1 7.9948 7.9948 1.1 16.5 1.1C25.0052 1.1 31.9 7.9948 31.9 16.5C31.8903 25.0011 25.0011 31.8903 16.5 31.9Z" fill="white"/>
<path d="M18.2853 26.8244C18.2558 26.5221 17.9868 26.3009 17.6845 26.3304C17.6774 26.3311 17.6703 26.3319 17.6632 26.3329L17.6654 26.3323C16.8911 26.4222 16.1088 26.4222 15.3345 26.3323C15.0327 26.2969 14.7594 26.5129 14.724 26.8147C14.6886 27.1165 14.9046 27.3898 15.2064 27.4252C16.0651 27.5255 16.9326 27.5255 17.7914 27.4252C18.0937 27.3957 18.3148 27.1267 18.2853 26.8244Z" fill="white"/>
<path d="M24.9149 9.41263C24.7197 9.17991 24.3728 9.14946 24.1401 9.34471C24.1393 9.34532 24.1386 9.34601 24.1378 9.34663C23.9056 9.54243 23.876 9.88934 24.0718 10.1216C27.3879 14.0582 27.1342 19.8792 23.4882 23.5124C23.273 23.7269 23.2724 24.0752 23.4868 24.2904C23.7013 24.5056 24.0496 24.5062 24.2648 24.2918C28.3167 20.2553 28.5993 13.7871 24.9149 9.41263Z" fill="white"/>
<path d="M12.8145 7.26985C12.8142 7.26985 12.8138 7.26978 12.8135 7.26978C12.8129 7.26978 12.8124 7.26985 12.8118 7.26985H12.8145Z" fill="white"/>
<path d="M19.0943 5.80744C16.9448 5.29229 14.6905 5.43075 12.6202 6.20508C12.3359 6.31199 12.1921 6.6292 12.299 6.91348C12.3796 7.12778 12.5845 7.26961 12.8133 7.26981C12.8791 7.26947 12.9443 7.25744 13.0058 7.23413C14.8701 6.53694 16.9002 6.41243 18.8358 6.87663C19.1311 6.948 19.4283 6.76657 19.4996 6.47128C19.571 6.176 19.3896 5.8788 19.0943 5.80744Z" fill="white"/>
<path d="M9.48699 23.485C7.63287 21.634 6.59372 19.1199 6.60004 16.5C6.59461 14.4068 7.25764 12.3666 8.49259 10.6766C8.67512 10.4337 8.62624 10.0889 8.38342 9.90642C8.14059 9.72389 7.79581 9.77277 7.61328 10.0156C7.61005 10.0199 7.60688 10.0243 7.60379 10.0287C4.4239 14.4003 4.89181 20.4346 8.70764 24.2638C8.92269 24.4789 9.27153 24.4791 9.48671 24.264C9.7019 24.049 9.70204 23.7001 9.48699 23.485Z" fill="white"/>
</svg>
