<svg width="29" height="29" viewBox="0 0 29 29" fill="none" xmlns="http://www.w3.org/2000/svg">
<g clip-path="url(#clip0)">
<path d="M28.9521 9.05871C28.5288 4.39948 25.231 1.01911 21.1038 1.01911C18.3543 1.01911 15.8367 2.49876 14.4201 4.8702C13.0163 2.46808 10.6019 1.01855 7.89638 1.01855C3.76977 1.01855 0.471389 4.39892 0.0486342 9.05815C0.0151707 9.26395 -0.12203 10.3471 0.295148 12.1134C0.896375 14.6611 2.28511 16.9784 4.31021 18.8133L14.4134 27.9817L15.0135 27.4469L15.0291 27.4519L15.038 27.4246L24.69 18.8144C26.7151 16.979 28.1038 14.6622 28.7051 12.1139C29.1223 10.3476 28.9851 9.26451 28.9521 9.05871ZM14.2332 26.3125L5.05979 17.9868C3.20201 16.3036 1.9304 14.1842 1.38104 11.8574C0.986169 10.1859 1.14847 9.24164 1.14902 9.23551L1.15739 9.17918C1.51991 5.09719 4.35371 2.134 7.89638 2.134C10.5104 2.134 12.8116 3.74025 13.9036 6.3253L13.9399 6.41175L9.4039 10.9477L17.7056 12.0542L11.352 17.8786L16.0631 20.8228L14.2332 26.3125ZM27.6192 11.8579C27.0704 14.1848 25.7982 16.3047 23.9438 17.9845L15.7469 25.298L17.3989 20.3426L13.1864 17.7096L20.2182 11.264L11.7882 10.1396L14.4073 7.52051L14.4167 7.54226L14.4396 7.48872L14.8947 7.03361L14.7095 6.84845L14.9304 6.32475C16.0051 3.77929 18.4279 2.134 21.1038 2.134C24.646 2.134 27.4803 5.09719 27.8501 9.23216C27.8518 9.24164 28.0141 10.1864 27.6192 11.8579Z" fill="white"/>
</g>
<defs>
<clipPath id="clip0">
<rect width="29" height="29" fill="white"/>
</clipPath>
</defs>
</svg>
