<svg width="29" height="27" viewBox="0 0 29 27" fill="none" xmlns="http://www.w3.org/2000/svg">
<path d="M28.952 8.05871C28.5287 3.39948 25.2309 0.0191124 21.1037 0.0191124C18.3541 0.0191124 15.8366 1.49876 14.42 3.8702C13.0162 1.46808 10.6018 0.0185547 7.89625 0.0185547C3.76965 0.0185547 0.471267 3.39892 0.0485121 8.05815C0.0150486 8.26395 -0.122152 9.34705 0.295026 11.1134C0.896253 13.6611 2.28499 15.9784 4.31008 17.8133L14.4133 26.9817L24.6899 17.8139C26.715 15.9784 28.1037 13.6616 28.705 11.1134C29.1221 9.34761 28.9849 8.26451 28.952 8.05871ZM27.6191 10.8579C27.0703 13.1848 25.7981 15.3047 23.9437 16.9845L14.42 25.4815L5.05967 16.9868C3.20189 15.3036 1.93027 13.1842 1.38092 10.8574C0.986047 9.18587 1.14834 8.24164 1.1489 8.23551L1.15727 8.17918C1.51979 4.09719 4.35359 1.134 7.89625 1.134C10.5103 1.134 12.8115 2.74025 13.9035 5.3253L14.4172 6.54282L14.9308 5.3253C16.0056 2.77985 18.4283 1.13456 21.1043 1.13456C24.6464 1.13456 27.4807 4.09775 27.8505 8.23272C27.8516 8.24164 28.0139 9.18643 27.6191 10.8579Z" fill="#FF0F5F"/>
</svg>
