<svg width="33" height="33" viewBox="0 0 33 33" fill="none" xmlns="http://www.w3.org/2000/svg">
<path d="M19.9805 12.2461C19.6247 12.2461 19.3359 12.5348 19.3359 12.8906C19.3359 13.2464 19.6247 13.5352 19.9805 13.5352C20.3362 13.5352 20.625 13.2464 20.625 12.8906C20.625 12.5348 20.3362 12.2461 19.9805 12.2461Z" fill="white"/>
<path d="M32.2447 28.5991L23.6415 19.9959C25.043 17.8848 25.7812 15.4401 25.7812 12.8906C25.7812 5.78273 19.9985 0 12.8906 0C5.78273 0 0 5.78273 0 12.8906C0 19.9985 5.78273 25.7812 12.8906 25.7812C15.4401 25.7812 17.8848 25.0429 19.9959 23.6415L22.3739 26.0195C22.3742 26.0199 22.3745 26.0202 22.3749 26.0206L28.599 32.2447C29.0861 32.7317 29.7335 33 30.4219 33C31.1103 33 31.7576 32.7317 32.2445 32.2449C32.7317 31.7581 33 31.1107 33 30.4219C33 29.7331 32.7317 29.0857 32.2447 28.5991ZM19.6928 22.2832C19.6928 22.2832 19.6927 22.2833 19.6926 22.2833C17.7031 23.7284 15.3511 24.4922 12.8906 24.4922C6.49352 24.4922 1.28906 19.2877 1.28906 12.8906C1.28906 6.49352 6.49352 1.28906 12.8906 1.28906C19.2877 1.28906 24.4922 6.49352 24.4922 12.8906C24.4922 15.3511 23.7284 17.7031 22.2832 19.6927C21.5603 20.6887 20.6887 21.5603 19.6928 22.2832ZM21.045 22.8675C21.7121 22.3218 22.3219 21.712 22.8675 21.045L24.6961 22.8736C24.14 23.5299 23.5299 24.1401 22.8736 24.6961L21.045 22.8675ZM31.3332 31.3332C31.0895 31.5768 30.7659 31.7109 30.4219 31.7109C30.0778 31.7109 29.7542 31.5768 29.5106 31.3332L23.7875 25.6101C24.4402 25.0499 25.0499 24.4402 25.61 23.7875L31.3333 29.5108C31.5768 29.7541 31.7109 30.0776 31.7109 30.4219C31.7109 30.7662 31.5768 31.0897 31.3332 31.3332Z" fill="white"/>
<path d="M12.8906 2.57812C7.20425 2.57812 2.57812 7.20425 2.57812 12.8906C2.57812 18.577 7.20425 23.2031 12.8906 23.2031C18.577 23.2031 23.2031 18.577 23.2031 12.8906C23.2031 7.20425 18.577 2.57812 12.8906 2.57812ZM12.8906 21.9141C7.9151 21.9141 3.86719 17.8661 3.86719 12.8906C3.86719 7.9151 7.9151 3.86719 12.8906 3.86719C17.8661 3.86719 21.9141 7.9151 21.9141 12.8906C21.9141 17.8661 17.8661 21.9141 12.8906 21.9141Z" fill="white"/>
<path d="M20.1136 10.1238C19.5586 8.67932 18.5922 7.44427 17.3189 6.5523C16.0153 5.639 14.484 5.15625 12.8906 5.15625C12.5347 5.15625 12.2461 5.44487 12.2461 5.80078C12.2461 6.15669 12.5347 6.44531 12.8906 6.44531C15.5396 6.44531 17.9586 8.10936 18.9103 10.5862C19.0088 10.8425 19.253 10.9998 19.5121 10.9998C19.5889 10.9998 19.6671 10.9859 19.7431 10.9567C20.0754 10.829 20.2413 10.4562 20.1136 10.1238Z" fill="white"/>
</svg>
