<svg width="35" height="33" viewBox="0 0 35 33" fill="none" xmlns="http://www.w3.org/2000/svg">
<path d="M6.9967 32.9985C6.86838 32.9985 6.74006 32.9588 6.63219 32.8801C6.44126 32.7412 6.34579 32.5063 6.38609 32.2738L8.30223 21.1043L0.186973 13.1948C0.0183569 13.0299 -0.0423944 12.7838 0.0301352 12.56C0.103285 12.3356 0.297317 12.172 0.531024 12.1379L11.7452 10.5081L16.7609 0.34591C16.8651 0.133901 17.0808 0 17.3164 0C17.5525 0 17.7683 0.133901 17.8718 0.34591L22.8869 10.5081L34.1017 12.1379C34.3354 12.172 34.5288 12.335 34.6026 12.56C34.6751 12.7838 34.615 13.0305 34.4458 13.1948L26.3305 21.1055L28.246 32.2744C28.2857 32.5069 28.1902 32.7419 27.9999 32.8807C27.809 33.0208 27.5554 33.0388 27.3465 32.9278L17.3164 27.6549L7.28496 32.9278C7.19445 32.9749 7.09526 32.9985 6.9967 32.9985ZM1.95186 13.1837L9.40071 20.4447C9.54639 20.5866 9.61334 20.7924 9.57863 20.9933L7.81994 31.2454L17.0281 26.4051C17.2085 26.3097 17.4236 26.3097 17.6052 26.4051L26.8122 31.2454L25.0541 20.9933C25.0194 20.7924 25.0863 20.5873 25.232 20.4447L32.6809 13.1837L22.3872 11.6878C22.1851 11.6587 22.0109 11.5316 21.9204 11.3487L17.3164 2.02153L12.7123 11.3493C12.6218 11.5322 12.4476 11.6593 12.2455 11.6884L1.95186 13.1837Z" fill="white"/>
</svg>
